# xmcd
#
# Track frame offsets:
#	150
#	13826
#	22981
#	37714
#
# Disc length: 720 seconds
# Revision: 0
# Processed by: cddbd v1.5.2PL0 Copyright (c) Steve Scherf et al.
# Submitted via: dBpowerAMP V12.0
#
DISCID=1f02ce04
DTITLE=Mitch Jacobs Band - Gulf Coast Jamboree
DYEAR=2011
DGENRE=Country
TTITLE0=Who's Gonna Bail Me Out
TTITLE1=What's So Hard About Love
TTITLE2=Lonely Tonight
TTITLE3=Rosa's Cantina
EXTD=
EXTT0=
EXTT1=
EXTT2=
EXTT3=
PLAYORDER=
